name ./resultDataOpenSim/trcMotMarkerGrf/sub06/grf-15-05.mot
datacolumns 19
datarows 12
range 1.53600000 1.58000000
endheader

                time	     ground_force_vx	     ground_force_vy	     ground_force_vz	     ground_force_px	     ground_force_py	     ground_force_pz	   l_ground_force_vx	   l_ground_force_vy	   l_ground_force_vz	   l_ground_force_px	   l_ground_force_py	   l_ground_force_pz	     ground_torque_x	     ground_torque_y	     ground_torque_z	   l_ground_torque_x	   l_ground_torque_y	   l_ground_torque_z	
          1.53600000	         35.77907503	        315.77278889	          3.69862198	          0.98639682	          0.00000000	          0.05470468	          0.00000000	          0.00000000	          0.00000000	          0.00000000	          0.00000000	          0.00000000	          0.00000000	          0.95227797	          0.00000000	          0.00000000	          0.00000000	          0.00000000	
          1.54000000	         38.03090260	        322.12301257	          2.74721292	          0.98644187	          0.00000000	          0.05445337	          0.00000000	          0.00000000	          0.00000000	          0.00000000	          0.00000000	          0.00000000	          0.00000000	          0.91644923	          0.00000000	          0.00000000	          0.00000000	          0.00000000	
          1.54400000	         39.41073486	        329.18269489	          1.84331116	          0.98668355	          0.00000000	          0.05419892	          0.00000000	          0.00000000	          0.00000000	          0.00000000	          0.00000000	          0.00000000	          0.00000000	          0.89724533	          0.00000000	          0.00000000	          0.00000000	          0.00000000	
          1.54800000	         40.11896556	        337.02143151	          1.26226979	          0.98706466	          0.00000000	          0.05391416	          0.00000000	          0.00000000	          0.00000000	          0.00000000	          0.00000000	          0.00000000	          0.00000000	          0.90311952	          0.00000000	          0.00000000	          0.00000000	          0.00000000	
          1.55200000	         40.56453280	        345.61945727	          1.20310051	          0.98749360	          0.00000000	          0.05359220	          0.00000000	          0.00000000	          0.00000000	          0.00000000	          0.00000000	          0.00000000	          0.00000000	          0.93632144	          0.00000000	          0.00000000	          0.00000000	          0.00000000	
          1.55600000	         41.25987747	        354.86569221	          1.74260537	          0.98785508	          0.00000000	          0.05324271	          0.00000000	          0.00000000	          0.00000000	          0.00000000	          0.00000000	          0.00000000	          0.00000000	          0.99207391	          0.00000000	          0.00000000	          0.00000000	          0.00000000	
          1.56000000	         42.68530261	        364.60783958	          2.81888864	          0.98806942	          0.00000000	          0.05288738	          0.00000000	          0.00000000	          0.00000000	          0.00000000	          0.00000000	          0.00000000	          0.00000000	          1.06000378	          0.00000000	          0.00000000	          0.00000000	          0.00000000	
          1.56400000	         45.16197349	        374.70668374	          4.24920269	          0.98809134	          0.00000000	          0.05254764	          0.00000000	          0.00000000	          0.00000000	          0.00000000	          0.00000000	          0.00000000	          0.00000000	          1.12746810	          0.00000000	          0.00000000	          0.00000000	          0.00000000	
          1.56800000	         48.77249275	        385.04727981	          5.77347225	          0.98791653	          0.00000000	          0.05223946	          0.00000000	          0.00000000	          0.00000000	          0.00000000	          0.00000000	          0.00000000	          0.00000000	          1.18331191	          0.00000000	          0.00000000	          0.00000000	          0.00000000	
          1.57200000	         53.35526277	        395.52681999	          7.10857031	          0.98761712	          0.00000000	          0.05197813	          0.00000000	          0.00000000	          0.00000000	          0.00000000	          0.00000000	          0.00000000	          0.00000000	          1.22039086	          0.00000000	          0.00000000	          0.00000000	          0.00000000	
          1.57600000	         58.56456287	        406.04877411	          8.00100617	          0.98726025	          0.00000000	          0.05177430	          0.00000000	          0.00000000	          0.00000000	          0.00000000	          0.00000000	          0.00000000	          0.00000000	          1.23603666	          0.00000000	          0.00000000	          0.00000000	          0.00000000	
          1.58000000	         63.97476643	        416.52790510	          8.27076856	          0.98690580	          0.00000000	          0.05163328	          0.00000000	          0.00000000	          0.00000000	          0.00000000	          0.00000000	          0.00000000	          0.00000000	          1.23090959	          0.00000000	          0.00000000	          0.00000000	          0.00000000	
